<svg id="Layer_1" enable-background="new 0 0 56 58" height="512" viewBox="0 0 56 58" width="512" xmlns="http://www.w3.org/2000/svg"><path d="m36.96 53h-32.96v5h33.815c.2 0 .396-.016.593-.03-4.467-.154 1.499-2.013-1.448-4.97z" fill="#839594"/><path d="m35 6-4-6h-31v54h42v-45z" fill="#e7eced"/><path d="m31 0v9h11z" fill="#afb6bb"/><path d="m28 17h-7c-.552 0-1-.448-1-1s.448-1 1-1h7c.552 0 1 .448 1 1s-.448 1-1 1z" fill="#25ae88"/><path d="m17 17h-12c-.552 0-1-.448-1-1s.448-1 1-1h12c.552 0 1 .448 1 1s-.448 1-1 1z" fill="#7383bf"/><path d="m20 27h-15c-.552 0-1-.448-1-1s.448-1 1-1h15c.552 0 1 .448 1 1s-.448 1-1 1z" fill="#366db6"/><path d="m34 17h-2c-.552 0-1-.448-1-1s.448-1 1-1h2c.552 0 1 .448 1 1s-.448 1-1 1z" fill="#f76363"/><path d="m19 22h-7c-.552 0-1-.448-1-1s.448-1 1-1h7c.552 0 1 .448 1 1s-.448 1-1 1z" fill="#be6e41"/><path d="m34 22h-11c-.552 0-1-.448-1-1s.448-1 1-1h11c.552 0 1 .448 1 1s-.448 1-1 1z" fill="#b34b4d"/><path d="m12 12h-7c-.552 0-1-.448-1-1s.448-1 1-1h7c.552 0 1 .448 1 1s-.448 1-1 1z" fill="#ebba16"/><path d="m27 12h-11c-.552 0-1-.448-1-1s.448-1 1-1h11c.552 0 1 .448 1 1s-.448 1-1 1z" fill="#366db6"/><path d="m17 37h-12c-.552 0-1-.448-1-1s.448-1 1-1h12c.552 0 1 .448 1 1s-.448 1-1 1z" fill="#25ae88"/><path d="m12 32h-7c-.552 0-1-.448-1-1s.448-1 1-1h7c.552 0 1 .448 1 1s-.448 1-1 1z" fill="#ed8a19"/><path d="m17 47h-12c-.552 0-1-.448-1-1s.448-1 1-1h12c.552 0 1 .448 1 1s-.448 1-1 1z" fill="#25ae88"/><path d="m12 42h-7c-.552 0-1-.448-1-1s.448-1 1-1h7c.552 0 1 .448 1 1s-.448 1-1 1z" fill="#dd352e"/><path d="m8 22h-3c-.552 0-1-.448-1-1s.448-1 1-1h3c.552 0 1 .448 1 1s-.448 1-1 1z" fill="#ea6248"/><path d="m24 7h-12c-.552 0-1-.448-1-1s.448-1 1-1h12c.552 0 1 .448 1 1s-.448 1-1 1z" fill="#ed8a19"/><path d="m8 7h-3c-.552 0-1-.448-1-1s.448-1 1-1h3c.552 0 1 .448 1 1s-.448 1-1 1z" fill="#dd352e"/><circle cx="39" cy="41" fill="#57abc1" r="17"/><path d="m26 42c-.552 0-1-.447-1-1 0-7.72 6.28-14 14-14 .552 0 1 .447 1 1s-.448 1-1 1c-6.617 0-12 5.383-12 12 0 .553-.448 1-1 1z" fill="#2d6d77"/><path d="m39 55c-.552 0-1-.447-1-1s.448-1 1-1c6.617 0 12-5.383 12-12 0-.553.448-1 1-1s1 .447 1 1c0 7.72-6.28 14-14 14z" fill="#2d6d77"/><path d="m44 43-5-2-5 2 5-10z" fill="#3a808c"/><path d="m44 43-5-2-5 2 5 6z" fill="#2d6d77"/></svg>